/* XPM */
static char *dummy[]={
"24 24 3 1",
". c None",
"a c #f8f8f8",
"# c #ff3500",
"........................",
"...........##...........",
"..........####..........",
".........######.........",
".........aaaaaa.........",
".......aaaaaaaaaa.......",
"......aaaa....aaaa......",
".....aaa........aaa.....",
".....aa..........aa.....",
"....aaa..........aaa....",
"....aa............aa....",
"....aa............aa....",
"....aa............aa....",
"....aa............aa....",
"....aaa..........aaa....",
".....aa..........aa.....",
".....aaa........aaa.....",
"......aaaa....aaaa......",
".......aaaaaaaaaa.......",
".........aaaaaa.........",
"........................",
"........................",
"........................",
"........................"};
